<svg width="60" height="60" viewBox="0 0 60 60" fill="none" xmlns="http://www.w3.org/2000/svg">
<circle cx="30" cy="30" r="30" fill="#E5E5E5"/>
<circle cx="30" cy="30" r="29" stroke="white" stroke-opacity="0.4" stroke-width="2"/>
<path d="M27.9688 29.3761H32.0312V32.9308H27.9688V29.3761Z" fill="white"/>
<path d="M21.6001 29.3761H25.6626V32.9308H21.6001V29.3761Z" fill="white"/>
<path d="M34.3306 34.78H38.3931V38.3347H34.3306V34.78Z" fill="white"/>
<path d="M27.9688 34.78H32.0312V38.3347H27.9688V34.78Z" fill="white"/>
<path d="M21.6001 34.78H25.6626V38.3347H21.6001V34.78Z" fill="white"/>
<path d="M36.2619 22.7708C37.2619 22.7708 38.0806 22.0544 38.0806 21.1794V17.5974C38.0806 16.7224 37.2619 16.006 36.2619 16.006C35.2619 16.006 34.4431 16.7224 34.4431 17.5974V21.1849C34.4431 22.0544 35.2619 22.7708 36.2619 22.7708Z" fill="white"/>
<path d="M19.081 19.3855H21.1435V21.5566C21.1435 22.8964 22.3747 23.9902 23.881 23.9902H24.606C26.1122 23.9902 27.3435 22.8964 27.3435 21.5566V19.3855H32.9935V21.5566C32.9935 22.8964 34.2247 23.9902 35.731 23.9902H36.456C37.9622 23.9902 39.1935 22.8964 39.1935 21.5566V19.3855H40.7747C42.4685 19.3855 43.856 20.616 43.856 22.1199V41.2605C43.856 42.7644 42.4685 43.9949 40.7747 43.9949H19.0747C17.381 43.9949 15.9935 42.7644 15.9935 41.2605V22.1199C15.9997 20.616 17.3872 19.3855 19.081 19.3855ZM19.606 38.6792C19.606 39.6144 20.4685 40.38 21.5185 40.38H38.331C39.381 40.38 40.2435 39.6144 40.2435 38.6792V29.0324C40.2435 28.0972 39.381 27.266 38.331 27.266H21.5185C20.4685 27.266 19.606 28.0972 19.606 29.0324V38.6792Z" fill="white"/>
<path d="M24.2311 22.7708C25.2311 22.7708 26.0498 22.0544 26.0498 21.1794V17.5974C26.0498 16.7224 25.2311 16.006 24.2311 16.006C23.2311 16.006 22.4123 16.7224 22.4123 17.5974V21.1849C22.4123 22.0544 23.2311 22.7708 24.2311 22.7708Z" fill="white"/>
</svg>
