<svg width="60" height="60" viewBox="0 0 60 60" fill="none" xmlns="http://www.w3.org/2000/svg">
<circle cx="30" cy="30" r="30" fill="#E5E5E5"/>
<circle cx="30" cy="30" r="29" stroke="white" stroke-opacity="0.4" stroke-width="2"/>
<path fill-rule="evenodd" clip-rule="evenodd" d="M30 46C38.8366 46 46 38.8366 46 30C46 21.1634 38.8366 14 30 14C21.1634 14 14 21.1634 14 30C14 38.8366 21.1634 46 30 46ZM30 41.8095C35.891 41.8095 40.2857 37.6508 40.2857 32.2857C40.2857 31.7143 35.891 33.5897 30 33.5897C24.109 33.5897 19.7143 31.7143 19.7143 32.2857C19.7143 37.6508 24.109 41.8095 30 41.8095ZM25.619 30C26.5658 30 27.3333 28.0386 27.3333 25.619C27.3333 23.1995 26.5658 21.2381 25.619 21.2381C24.6723 21.2381 23.9048 23.1995 23.9048 25.619C23.9048 28.0386 24.6723 30 25.619 30ZM34.381 30C35.3277 30 36.0952 28.0386 36.0952 25.619C36.0952 23.1995 35.3277 21.2381 34.381 21.2381C33.4342 21.2381 32.6667 23.1995 32.6667 25.619C32.6667 28.0386 33.4342 30 34.381 30Z" fill="white"/>
</svg>
