<svg width="60" height="60" viewBox="0 0 60 60" fill="none" xmlns="http://www.w3.org/2000/svg">
<circle cx="30" cy="30" r="30" fill="#0D2452"/>
<circle cx="30" cy="30" r="29" stroke="white" stroke-opacity="0.4" stroke-width="2"/>
<path d="M38.3214 35.1607C38.3214 36.9821 37.7292 38.5506 36.5446 39.8661C35.3601 41.1815 33.8214 41.994 31.9286 42.3036V45.4286C31.9286 45.5952 31.875 45.7321 31.7679 45.8393C31.6607 45.9464 31.5238 46 31.3571 46H28.9464C28.7917 46 28.6577 45.9435 28.5446 45.8304C28.4315 45.7173 28.375 45.5833 28.375 45.4286V42.3036C27.5893 42.1964 26.8304 42.0119 26.0982 41.75C25.3661 41.4881 24.7619 41.2232 24.2857 40.9554C23.8095 40.6875 23.369 40.4018 22.9643 40.0982C22.5595 39.7946 22.2827 39.5714 22.1339 39.4286C21.9851 39.2857 21.881 39.1786 21.8214 39.1071C21.619 38.8571 21.6071 38.6131 21.7857 38.375L23.625 35.9643C23.7083 35.8452 23.8452 35.7738 24.0357 35.75C24.2143 35.7262 24.3571 35.7798 24.4643 35.9107L24.5 35.9464C25.8452 37.125 27.2917 37.869 28.8393 38.1786C29.2798 38.2738 29.7202 38.3214 30.1607 38.3214C31.125 38.3214 31.9732 38.0655 32.7054 37.5536C33.4375 37.0417 33.8036 36.3155 33.8036 35.375C33.8036 35.0417 33.7143 34.7262 33.5357 34.4286C33.3571 34.131 33.1577 33.881 32.9375 33.6786C32.7173 33.4762 32.369 33.253 31.8929 33.0089C31.4167 32.7649 31.0238 32.5744 30.7143 32.4375C30.4048 32.3006 29.9286 32.1071 29.2857 31.8571C28.8214 31.6667 28.4554 31.5179 28.1875 31.4107C27.9196 31.3036 27.5536 31.1458 27.0893 30.9375C26.625 30.7292 26.253 30.5446 25.9732 30.3839C25.6935 30.2232 25.3571 30.0119 24.9643 29.75C24.5714 29.4881 24.253 29.2351 24.0089 28.9911C23.7649 28.747 23.506 28.4554 23.2321 28.1161C22.9583 27.7768 22.747 27.4315 22.5982 27.0804C22.4494 26.7292 22.3244 26.3333 22.2232 25.8929C22.122 25.4524 22.0714 24.9881 22.0714 24.5C22.0714 22.8571 22.6548 21.4167 23.8214 20.1786C24.9881 18.9405 26.506 18.1429 28.375 17.7857V14.5714C28.375 14.4167 28.4315 14.2827 28.5446 14.1696C28.6577 14.0565 28.7917 14 28.9464 14H31.3571C31.5238 14 31.6607 14.0536 31.7679 14.1607C31.875 14.2679 31.9286 14.4048 31.9286 14.5714V17.7143C32.6071 17.7857 33.2649 17.9226 33.9018 18.125C34.5387 18.3274 35.0565 18.5268 35.4554 18.7232C35.8542 18.9196 36.2321 19.1429 36.5893 19.3929C36.9464 19.6429 37.1786 19.8155 37.2857 19.9107C37.3929 20.006 37.4821 20.0893 37.5536 20.1607C37.756 20.375 37.7857 20.6012 37.6429 20.8393L36.1964 23.4464C36.1012 23.625 35.9643 23.7202 35.7857 23.7321C35.619 23.7679 35.4583 23.7262 35.3036 23.6071C35.2679 23.5714 35.1815 23.5 35.0446 23.3929C34.9077 23.2857 34.6756 23.128 34.3482 22.9196C34.0208 22.7113 33.6726 22.5208 33.3036 22.3482C32.9345 22.1756 32.4911 22.0208 31.9732 21.8839C31.4554 21.747 30.9464 21.6786 30.4464 21.6786C29.3155 21.6786 28.3929 21.9345 27.6786 22.4464C26.9643 22.9583 26.6071 23.619 26.6071 24.4286C26.6071 24.7381 26.6577 25.0238 26.7589 25.2857C26.8601 25.5476 27.0357 25.7946 27.2857 26.0268C27.5357 26.2589 27.7708 26.4554 27.9911 26.6161C28.2113 26.7768 28.5446 26.9613 28.9911 27.1696C29.4375 27.378 29.7976 27.5387 30.0714 27.6518C30.3452 27.7649 30.7619 27.9286 31.3214 28.1429C31.9524 28.381 32.4345 28.5685 32.7679 28.7054C33.1012 28.8423 33.5536 29.0506 34.125 29.3304C34.6964 29.6101 35.1458 29.8631 35.4732 30.0893C35.8006 30.3155 36.1696 30.6131 36.5804 30.9821C36.9911 31.3512 37.3065 31.7292 37.5268 32.1161C37.747 32.503 37.9345 32.9583 38.0893 33.4821C38.244 34.006 38.3214 34.5655 38.3214 35.1607Z" fill="white"/>
</svg>
