<svg width="60" height="60" viewBox="0 0 60 60" fill="none" xmlns="http://www.w3.org/2000/svg">
<circle cx="30" cy="30" r="30" fill="#E5E5E5"/>
<circle cx="30" cy="30" r="29" stroke="white" stroke-opacity="0.4" stroke-width="2"/>
<path d="M21.0786 40.1765C21.0786 39.8389 20.9551 39.5468 20.7081 39.3001C20.4611 39.0534 20.1686 38.93 19.8306 38.93C19.4926 38.93 19.2001 39.0534 18.9531 39.3001C18.7061 39.5468 18.5826 39.8389 18.5826 40.1765C18.5826 40.5141 18.7061 40.8062 18.9531 41.053C19.2001 41.2997 19.4926 41.423 19.8306 41.423C20.1686 41.423 20.4611 41.2997 20.7081 41.053C20.9551 40.8062 21.0786 40.5141 21.0786 40.1765ZM33.6368 31.9963L20.3376 45.2794C19.8566 45.7598 19.2716 46 18.5826 46C17.9066 46 17.3151 45.7598 16.808 45.2794L14.741 43.1759C14.247 42.7085 14 42.1242 14 41.423C14 40.7348 14.247 40.144 14.741 39.6506L28.0207 26.3871C28.5277 27.6596 29.272 28.786 30.2535 29.7663C31.235 30.7466 32.3628 31.49 33.6368 31.9963ZM46 23.524C46 24.0304 45.8505 24.7186 45.5515 25.5886C44.9405 27.3285 43.8712 28.7405 42.3437 29.8247C40.8162 30.9089 39.1359 31.451 37.3029 31.451C34.8978 31.451 32.8405 30.5973 31.131 28.8898C29.4215 27.1824 28.5667 25.1276 28.5667 22.7255C28.5667 20.3234 29.4215 18.2686 31.131 16.5612C32.8405 14.8537 34.8978 14 37.3029 14C38.0569 14 38.8466 14.1071 39.6722 14.3214C40.4977 14.5356 41.1964 14.8375 41.7684 15.227C41.9764 15.3699 42.0804 15.5516 42.0804 15.7724C42.0804 15.9931 41.9764 16.1749 41.7684 16.3177L36.0548 19.6093V23.972L39.8184 26.056C39.8834 26.017 40.3969 25.7022 41.3589 25.1114C42.3209 24.5206 43.2017 23.9947 44.0012 23.5338C44.8007 23.0728 45.259 22.8424 45.376 22.8424C45.571 22.8424 45.7237 22.9073 45.8342 23.0371C45.9447 23.167 46 23.3293 46 23.524Z" fill="white"/>
</svg>
