<svg width="361" height="66" viewBox="0 0 361 66" fill="none" xmlns="http://www.w3.org/2000/svg">
<rect width="361" height="50" fill="#FF7E7E"/>
<path d="M38.1597 9.22873C41.1581 9.22873 43.6569 10.3648 45.4356 12.5188L51.1765 6.51001C48.0422 3.51704 43.6682 2 38.1597 2C32.6513 2 28.2772 3.51721 25.1428 6.51001L30.8839 12.5188C32.6626 10.3648 35.1612 9.22873 38.1597 9.22873Z" fill="white"/>
<path d="M29.348 31.6863L3.95526 58.2633L11.6928 58.7242C12.1124 58.7493 12.442 59.093 12.4496 59.513L12.5677 65.9998L37.0562 39.9012L35.387 38.1223L29.348 31.6863Z" fill="white"/>
<path d="M41.917 24.0663L46.9607 29.3452L53.3727 22.5118C55.2123 20.5511 56.2572 18.0776 56.3144 15.5471C56.3724 12.9766 55.3793 10.5993 53.5181 8.85258C53.5117 8.84671 53.5057 8.84083 53.4998 8.83479L52.3142 7.64917L39.2731 21.2987L41.917 24.0663Z" fill="white"/>
<path d="M62.3239 57.2055C62.4963 57.024 62.7434 56.9338 62.9925 56.9599L72.0448 57.9289L24.0054 7.64941L22.82 8.83503C22.8139 8.8409 22.8079 8.84677 22.8017 8.85282C19.023 12.3983 19.0868 18.3982 22.9469 22.512L29.9404 29.9653L30.0682 30.1015L63.3185 65.5378L62.1118 57.8852C62.0728 57.6381 62.1512 57.3868 62.3239 57.2055Z" fill="white"/>
<path d="M76.7217 29.7588L80.3779 19.2031H82.2236L77.4775 32H75.9834L71.2461 19.2031H73.083L76.7217 29.7588ZM82.8564 27.1572C82.8564 26.2256 83.0381 25.3877 83.4014 24.6436C83.7705 23.8994 84.2803 23.3252 84.9307 22.9209C85.5869 22.5166 86.334 22.3145 87.1719 22.3145C88.4668 22.3145 89.5127 22.7627 90.3096 23.6592C91.1123 24.5557 91.5137 25.748 91.5137 27.2363V27.3506C91.5137 28.2764 91.335 29.1084 90.9775 29.8467C90.626 30.5791 90.1191 31.1504 89.457 31.5605C88.8008 31.9707 88.0449 32.1758 87.1895 32.1758C85.9004 32.1758 84.8545 31.7275 84.0518 30.8311C83.2549 29.9346 82.8564 28.748 82.8564 27.2715V27.1572ZM84.4912 27.3506C84.4912 28.4053 84.7344 29.252 85.2207 29.8906C85.7129 30.5293 86.3691 30.8486 87.1895 30.8486C88.0156 30.8486 88.6719 30.5264 89.1582 29.8818C89.6445 29.2314 89.8877 28.3232 89.8877 27.1572C89.8877 26.1143 89.6387 25.2705 89.1406 24.626C88.6484 23.9756 87.9922 23.6504 87.1719 23.6504C86.3691 23.6504 85.7217 23.9697 85.2295 24.6084C84.7373 25.2471 84.4912 26.1611 84.4912 27.3506ZM95.3193 32H93.6934V18.5H95.3193V32ZM103.801 31.0596C103.168 31.8037 102.239 32.1758 101.015 32.1758C100.001 32.1758 99.2275 31.8828 98.6943 31.2969C98.167 30.7051 97.9004 29.832 97.8945 28.6777V22.4902H99.5205V28.6338C99.5205 30.0752 100.106 30.7959 101.278 30.7959C102.521 30.7959 103.347 30.333 103.757 29.4072V22.4902H105.383V32H103.836L103.801 31.0596ZM109.399 22.4902L109.452 23.6855C110.179 22.7715 111.128 22.3145 112.3 22.3145C114.31 22.3145 115.323 23.4482 115.341 25.7158V32H113.715V25.707C113.709 25.0215 113.551 24.5146 113.24 24.1865C112.936 23.8584 112.458 23.6943 111.808 23.6943C111.28 23.6943 110.817 23.835 110.419 24.1162C110.021 24.3975 109.71 24.7666 109.487 25.2236V32H107.861V22.4902H109.399ZM119.999 20.1875V22.4902H121.774V23.7471H119.999V29.6445C119.999 30.0254 120.078 30.3125 120.236 30.5059C120.395 30.6934 120.664 30.7871 121.045 30.7871C121.232 30.7871 121.49 30.752 121.818 30.6816V32C121.391 32.1172 120.975 32.1758 120.57 32.1758C119.844 32.1758 119.296 31.9561 118.927 31.5166C118.558 31.0771 118.373 30.4531 118.373 29.6445V23.7471H116.642V22.4902H118.373V20.1875H119.999ZM127.628 32.1758C126.339 32.1758 125.29 31.7539 124.481 30.9102C123.673 30.0605 123.269 28.9268 123.269 27.5088V27.21C123.269 26.2666 123.447 25.4258 123.805 24.6875C124.168 23.9434 124.672 23.3633 125.316 22.9473C125.967 22.5254 126.67 22.3145 127.426 22.3145C128.662 22.3145 129.623 22.7217 130.309 23.5361C130.994 24.3506 131.337 25.5166 131.337 27.0342V27.7109H124.895C124.918 28.6484 125.19 29.4072 125.712 29.9873C126.239 30.5615 126.907 30.8486 127.716 30.8486C128.29 30.8486 128.776 30.7314 129.175 30.4971C129.573 30.2627 129.922 29.9521 130.221 29.5654L131.214 30.3389C130.417 31.5635 129.222 32.1758 127.628 32.1758ZM127.426 23.6504C126.77 23.6504 126.219 23.8906 125.773 24.3711C125.328 24.8457 125.053 25.5137 124.947 26.375H129.711V26.252C129.664 25.4258 129.441 24.7871 129.043 24.3359C128.645 23.8789 128.105 23.6504 127.426 23.6504ZM137.173 32.1758C135.884 32.1758 134.835 31.7539 134.026 30.9102C133.218 30.0605 132.813 28.9268 132.813 27.5088V27.21C132.813 26.2666 132.992 25.4258 133.35 24.6875C133.713 23.9434 134.217 23.3633 134.861 22.9473C135.512 22.5254 136.215 22.3145 136.971 22.3145C138.207 22.3145 139.168 22.7217 139.854 23.5361C140.539 24.3506 140.882 25.5166 140.882 27.0342V27.7109H134.439C134.463 28.6484 134.735 29.4072 135.257 29.9873C135.784 30.5615 136.452 30.8486 137.261 30.8486C137.835 30.8486 138.321 30.7314 138.72 30.4971C139.118 30.2627 139.467 29.9521 139.766 29.5654L140.759 30.3389C139.962 31.5635 138.767 32.1758 137.173 32.1758ZM136.971 23.6504C136.314 23.6504 135.764 23.8906 135.318 24.3711C134.873 24.8457 134.598 25.5137 134.492 26.375H139.256V26.252C139.209 25.4258 138.986 24.7871 138.588 24.3359C138.189 23.8789 137.65 23.6504 136.971 23.6504ZM147.368 23.9492C147.122 23.9082 146.855 23.8877 146.568 23.8877C145.502 23.8877 144.778 24.3418 144.397 25.25V32H142.771V22.4902H144.354L144.38 23.5889C144.913 22.7393 145.669 22.3145 146.647 22.3145C146.964 22.3145 147.204 22.3555 147.368 22.4375V23.9492ZM162.081 20.5918H157.968V32H156.289V20.5918H152.185V19.2031H162.081V20.5918ZM167.653 23.9492C167.407 23.9082 167.141 23.8877 166.854 23.8877C165.787 23.8877 165.063 24.3418 164.683 25.25V32H163.057V22.4902H164.639L164.665 23.5889C165.198 22.7393 165.954 22.3145 166.933 22.3145C167.249 22.3145 167.489 22.3555 167.653 22.4375V23.9492ZM168.55 27.1572C168.55 26.2256 168.731 25.3877 169.095 24.6436C169.464 23.8994 169.974 23.3252 170.624 22.9209C171.28 22.5166 172.027 22.3145 172.865 22.3145C174.16 22.3145 175.206 22.7627 176.003 23.6592C176.806 24.5557 177.207 25.748 177.207 27.2363V27.3506C177.207 28.2764 177.028 29.1084 176.671 29.8467C176.319 30.5791 175.812 31.1504 175.15 31.5605C174.494 31.9707 173.738 32.1758 172.883 32.1758C171.594 32.1758 170.548 31.7275 169.745 30.8311C168.948 29.9346 168.55 28.748 168.55 27.2715V27.1572ZM170.185 27.3506C170.185 28.4053 170.428 29.252 170.914 29.8906C171.406 30.5293 172.062 30.8486 172.883 30.8486C173.709 30.8486 174.365 30.5264 174.852 29.8818C175.338 29.2314 175.581 28.3232 175.581 27.1572C175.581 26.1143 175.332 25.2705 174.834 24.626C174.342 23.9756 173.686 23.6504 172.865 23.6504C172.062 23.6504 171.415 23.9697 170.923 24.6084C170.431 25.2471 170.185 26.1611 170.185 27.3506ZM178.815 27.1572C178.815 26.2256 178.997 25.3877 179.36 24.6436C179.729 23.8994 180.239 23.3252 180.89 22.9209C181.546 22.5166 182.293 22.3145 183.131 22.3145C184.426 22.3145 185.472 22.7627 186.269 23.6592C187.071 24.5557 187.473 25.748 187.473 27.2363V27.3506C187.473 28.2764 187.294 29.1084 186.937 29.8467C186.585 30.5791 186.078 31.1504 185.416 31.5605C184.76 31.9707 184.004 32.1758 183.148 32.1758C181.859 32.1758 180.813 31.7275 180.011 30.8311C179.214 29.9346 178.815 28.748 178.815 27.2715V27.1572ZM180.45 27.3506C180.45 28.4053 180.693 29.252 181.18 29.8906C181.672 30.5293 182.328 30.8486 183.148 30.8486C183.975 30.8486 184.631 30.5264 185.117 29.8818C185.604 29.2314 185.847 28.3232 185.847 27.1572C185.847 26.1143 185.598 25.2705 185.1 24.626C184.607 23.9756 183.951 23.6504 183.131 23.6504C182.328 23.6504 181.681 23.9697 181.188 24.6084C180.696 25.2471 180.45 26.1611 180.45 27.3506ZM197.545 27.3506C197.545 28.7979 197.214 29.9639 196.552 30.8486C195.89 31.7334 194.993 32.1758 193.862 32.1758C192.708 32.1758 191.8 31.8096 191.138 31.0771V35.6562H189.512V22.4902H190.997L191.076 23.5449C191.738 22.7246 192.658 22.3145 193.836 22.3145C194.979 22.3145 195.881 22.7451 196.543 23.6064C197.211 24.4678 197.545 25.666 197.545 27.2012V27.3506ZM195.919 27.166C195.919 26.0938 195.69 25.2471 195.233 24.626C194.776 24.0049 194.149 23.6943 193.353 23.6943C192.368 23.6943 191.63 24.1309 191.138 25.0039V29.5479C191.624 30.415 192.368 30.8486 193.37 30.8486C194.149 30.8486 194.768 30.541 195.225 29.9258C195.688 29.3047 195.919 28.3848 195.919 27.166ZM205.156 29.4775C205.156 29.0381 204.989 28.6982 204.655 28.458C204.327 28.2119 203.75 28.001 202.924 27.8252C202.104 27.6494 201.45 27.4385 200.964 27.1924C200.483 26.9463 200.126 26.6533 199.892 26.3135C199.663 25.9736 199.549 25.5693 199.549 25.1006C199.549 24.3213 199.877 23.6621 200.533 23.123C201.195 22.584 202.039 22.3145 203.064 22.3145C204.143 22.3145 205.016 22.5928 205.684 23.1494C206.357 23.7061 206.694 24.418 206.694 25.2852H205.06C205.06 24.8398 204.869 24.4561 204.488 24.1338C204.113 23.8115 203.639 23.6504 203.064 23.6504C202.473 23.6504 202.01 23.7793 201.676 24.0371C201.342 24.2949 201.175 24.6318 201.175 25.0479C201.175 25.4404 201.33 25.7363 201.641 25.9355C201.951 26.1348 202.511 26.3252 203.319 26.5068C204.134 26.6885 204.793 26.9053 205.297 27.1572C205.801 27.4092 206.173 27.7139 206.413 28.0713C206.659 28.4229 206.782 28.8535 206.782 29.3633C206.782 30.2129 206.442 30.8955 205.763 31.4111C205.083 31.9209 204.201 32.1758 203.117 32.1758C202.355 32.1758 201.682 32.041 201.096 31.7715C200.51 31.502 200.05 31.127 199.716 30.6465C199.388 30.1602 199.224 29.6357 199.224 29.0732H200.85C200.879 29.6182 201.096 30.0518 201.5 30.374C201.91 30.6904 202.449 30.8486 203.117 30.8486C203.732 30.8486 204.225 30.7256 204.594 30.4795C204.969 30.2275 205.156 29.8936 205.156 29.4775Z" fill="white"/>
<path d="M291.557 29.6426C291.557 29.1445 291.381 28.7637 291.029 28.5C290.678 28.2305 290.045 27.9492 289.131 27.6562C288.217 27.3574 287.493 27.0645 286.96 26.7773C285.507 25.9922 284.78 24.9346 284.78 23.6045C284.78 22.9131 284.974 22.2979 285.36 21.7588C285.753 21.2139 286.312 20.7891 287.039 20.4844C287.771 20.1797 288.592 20.0273 289.5 20.0273C290.414 20.0273 291.229 20.1943 291.943 20.5283C292.658 20.8564 293.212 21.3223 293.604 21.9258C294.003 22.5293 294.202 23.2148 294.202 23.9824H291.565C291.565 23.3965 291.381 22.9424 291.012 22.6201C290.643 22.292 290.124 22.1279 289.456 22.1279C288.812 22.1279 288.311 22.2656 287.953 22.541C287.596 22.8105 287.417 23.168 287.417 23.6133C287.417 24.0293 287.625 24.3779 288.041 24.6592C288.463 24.9404 289.081 25.2041 289.896 25.4502C291.396 25.9014 292.488 26.4609 293.174 27.1289C293.859 27.7969 294.202 28.6289 294.202 29.625C294.202 30.7324 293.783 31.6025 292.945 32.2354C292.107 32.8623 290.979 33.1758 289.562 33.1758C288.577 33.1758 287.681 32.9971 286.872 32.6396C286.063 32.2764 285.445 31.7812 285.018 31.1543C284.596 30.5273 284.385 29.8008 284.385 28.9746H287.03C287.03 30.3867 287.874 31.0928 289.562 31.0928C290.188 31.0928 290.678 30.9668 291.029 30.7148C291.381 30.457 291.557 30.0996 291.557 29.6426ZM298.509 33H295.96V23.4902H298.509V33ZM295.811 21.0293C295.811 20.6484 295.937 20.335 296.188 20.0889C296.446 19.8428 296.795 19.7197 297.234 19.7197C297.668 19.7197 298.014 19.8428 298.271 20.0889C298.529 20.335 298.658 20.6484 298.658 21.0293C298.658 21.416 298.526 21.7324 298.263 21.9785C298.005 22.2246 297.662 22.3477 297.234 22.3477C296.807 22.3477 296.461 22.2246 296.197 21.9785C295.939 21.7324 295.811 21.416 295.811 21.0293ZM300.24 28.1748C300.24 26.7158 300.586 25.541 301.277 24.6504C301.975 23.7598 302.912 23.3145 304.09 23.3145C305.133 23.3145 305.944 23.6719 306.524 24.3867L306.63 23.4902H308.933V32.6836C308.933 33.5156 308.742 34.2393 308.361 34.8545C307.986 35.4697 307.456 35.9385 306.771 36.2607C306.085 36.583 305.282 36.7441 304.362 36.7441C303.665 36.7441 302.985 36.6035 302.323 36.3223C301.661 36.0469 301.16 35.6895 300.82 35.25L301.945 33.7031C302.578 34.4121 303.346 34.7666 304.248 34.7666C304.922 34.7666 305.446 34.585 305.821 34.2217C306.196 33.8643 306.384 33.3545 306.384 32.6924V32.1826C305.798 32.8447 305.027 33.1758 304.072 33.1758C302.93 33.1758 302.004 32.7305 301.295 31.8398C300.592 30.9434 300.24 29.7568 300.24 28.2803V28.1748ZM302.78 28.3594C302.78 29.2207 302.953 29.8975 303.299 30.3896C303.645 30.876 304.119 31.1191 304.723 31.1191C305.496 31.1191 306.05 30.8291 306.384 30.249V26.25C306.044 25.6699 305.496 25.3799 304.74 25.3799C304.131 25.3799 303.65 25.6289 303.299 26.127C302.953 26.625 302.78 27.3691 302.78 28.3594ZM313.23 23.4902L313.31 24.5889C313.989 23.7393 314.9 23.3145 316.043 23.3145C317.051 23.3145 317.801 23.6104 318.293 24.2021C318.785 24.7939 319.037 25.6787 319.049 26.8564V33H316.509V26.918C316.509 26.3789 316.392 25.9893 316.157 25.749C315.923 25.5029 315.533 25.3799 314.988 25.3799C314.273 25.3799 313.737 25.6846 313.38 26.2939V33H310.84V23.4902H313.23ZM326.678 32.0332C326.051 32.7949 325.184 33.1758 324.076 33.1758C323.057 33.1758 322.277 32.8828 321.738 32.2969C321.205 31.7109 320.933 30.8525 320.921 29.7217V23.4902H323.461V29.6338C323.461 30.624 323.912 31.1191 324.814 31.1191C325.676 31.1191 326.268 30.8203 326.59 30.2227V23.4902H329.139V33H326.748L326.678 32.0332ZM339.615 28.333C339.615 29.7979 339.281 30.9727 338.613 31.8574C337.951 32.7363 337.055 33.1758 335.924 33.1758C334.963 33.1758 334.187 32.8418 333.595 32.1738V36.6562H331.055V23.4902H333.41L333.498 24.4219C334.113 23.6836 334.916 23.3145 335.906 23.3145C337.078 23.3145 337.989 23.748 338.64 24.6152C339.29 25.4824 339.615 26.6777 339.615 28.2012V28.333ZM337.075 28.1484C337.075 27.2637 336.917 26.5811 336.601 26.1006C336.29 25.6201 335.836 25.3799 335.238 25.3799C334.441 25.3799 333.894 25.6846 333.595 26.2939V30.1875C333.905 30.8145 334.459 31.1279 335.256 31.1279C336.469 31.1279 337.075 30.1348 337.075 28.1484Z" fill="white"/>
</svg>
