<svg width="70" height="29" viewBox="0 0 70 29" fill="none" xmlns="http://www.w3.org/2000/svg">
<path d="M12.7905 3.69648C11.9701 4.66979 10.6579 5.43553 9.34538 5.32612C9.18149 4.01361 9.82671 2.61376 10.5813 1.76066C11.4016 0.765593 12.8343 0.0546308 14.0045 0C14.1357 1.35603 13.5997 2.70126 12.7905 3.69648ZM13.9826 5.57736C12.0797 5.4681 10.4502 6.66024 9.55325 6.66024C8.63457 6.66024 7.25648 5.63214 5.74736 5.66486C3.78978 5.69773 1.97434 6.80237 0.979111 8.56303C-1.07692 12.0958 0.443151 17.3125 2.4336 20.1889C3.40691 21.6105 4.56618 23.1749 6.09751 23.1199C7.55215 23.065 8.12068 22.1792 9.87054 22.1792C11.6314 22.1792 12.1456 23.1199 13.6766 23.0977C15.2622 23.0648 16.2575 21.6761 17.2309 20.2543C18.3354 18.6355 18.7948 17.0719 18.8167 16.9845C18.784 16.9512 15.7544 15.7923 15.7217 12.2925C15.6889 9.3615 18.1167 7.9726 18.2262 7.88509C16.8589 5.85082 14.7263 5.63214 13.9826 5.57736ZM24.9629 1.61838V22.9341H28.2769V15.6501H32.8591C37.0479 15.6501 39.9789 12.7739 39.9789 8.61797C39.9789 4.46207 37.0917 1.61838 32.9689 1.61838H24.9629ZM28.2769 4.40729H32.0937C34.9701 4.40729 36.6107 5.93847 36.6107 8.62892C36.6107 11.3192 34.9703 12.8723 32.0829 12.8723H28.277V4.40729H28.2769ZM46.0162 23.0979C48.0941 23.0979 50.0188 22.0483 50.894 20.3748H50.9596V22.934H54.0218V12.3253C54.0218 9.25208 51.561 7.26179 47.777 7.26179C44.2662 7.26179 41.6632 9.27399 41.5648 12.03H44.5506C44.802 10.7175 46.0162 9.85363 47.6787 9.85363C49.7019 9.85363 50.8392 10.7941 50.8392 12.5331V13.7143L46.7051 13.9657C42.8665 14.1953 40.7885 15.77 40.7885 18.5045C40.7993 21.2608 42.9429 23.0979 46.0162 23.0979ZM46.9129 20.5718C45.152 20.5718 44.0254 19.7188 44.0254 18.4279C44.0254 17.0827 45.1083 16.3064 47.1751 16.1859L50.8499 15.9561V17.1594C50.85 19.15 49.1551 20.5718 46.9129 20.5718ZM58.1229 28.7303C61.349 28.7303 62.8692 27.4947 64.1926 23.765L70 7.4695H66.6315L62.7382 20.0576H62.6726L58.7788 7.4695H55.3229L60.9226 22.9886L60.6163 23.9292C60.113 25.5258 59.293 26.1494 57.8274 26.1494C57.565 26.1494 57.0619 26.1167 56.8541 26.0945V28.6539C57.051 28.6977 57.8714 28.7303 58.1229 28.7303Z" fill="black"/>
</svg>
