<svg width="36" height="26" viewBox="0 0 36 26" fill="none" xmlns="http://www.w3.org/2000/svg">
<path d="M36 0.814453H0.368164V25.3209H36V0.814453Z" fill="#2A3560"/>
<path d="M3.58384 3.51123L3.88864 4.44089H4.84878L4.07153 5.00478L4.36109 5.93445L3.58384 5.35531L2.79134 5.93445L3.09615 5.00478L2.30365 4.44089H3.27903L3.58384 3.51123Z" fill="white"/>
<path d="M3.58384 7.59668L3.88864 8.52634H4.84878L4.07153 9.10547L4.36109 10.0199L3.58384 9.456L2.79134 10.0199L3.09615 9.10547L2.30365 8.52634H3.27903L3.58384 7.59668Z" fill="white"/>
<path d="M3.58384 11.6958L3.88864 12.6255H4.84878L4.07153 13.1893L4.36109 14.119L3.58384 13.5399L2.79134 14.119L3.09615 13.1893L2.30365 12.6255H3.27903L3.58384 11.6958Z" fill="white"/>
<path d="M3.58384 15.7798L3.88864 16.7094H4.84878L4.07153 17.2886L4.36109 18.203L3.58384 17.6391L2.79134 18.203L3.09615 17.2886L2.30365 16.7094H3.27903L3.58384 15.7798Z" fill="white"/>
<path d="M3.58384 19.8799L3.88864 20.7943H4.84878L4.07153 21.3734L4.36109 22.3031L3.58384 21.724L2.79134 22.3031L3.09615 21.3734L2.30365 20.7943H3.27903L3.58384 19.8799Z" fill="white"/>
<path d="M6.43375 5.66162L6.73856 6.59128H7.6987L6.92144 7.17041L7.21101 8.08483L6.43375 7.52094L5.64125 8.08483L5.94606 7.17041L5.15356 6.59128H6.12894L6.43375 5.66162Z" fill="white"/>
<path d="M6.43375 9.76025L6.73856 10.6747H7.6987L6.92144 11.2538L7.21101 12.1835L6.43375 11.6043L5.64125 12.1835L5.94606 11.2538L5.15356 10.6747H6.12894L6.43375 9.76025Z" fill="white"/>
<path d="M6.43375 13.8452L6.73856 14.7749H7.6987L6.92144 15.354L7.21101 16.2684L6.43375 15.7045L5.64125 16.2684L5.94606 15.354L5.15356 14.7749H6.12894L6.43375 13.8452Z" fill="white"/>
<path d="M6.43375 17.9443L6.73856 18.8588H7.6987L6.92144 19.4379L7.21101 20.3675L6.43375 19.7884L5.64125 20.3675L5.94606 19.4379L5.15356 18.8588H6.12894L6.43375 17.9443Z" fill="white"/>
<path d="M9.31424 3.51123L9.61905 4.44089H10.5944L9.80193 5.00478L10.1067 5.93445L9.31424 5.35531L8.52175 5.93445L8.82655 5.00478L8.03406 4.44089H9.00944L9.31424 3.51123Z" fill="white"/>
<path d="M9.31424 7.59668L9.61905 8.52634H10.5944L9.80193 9.10547L10.1067 10.0199L9.31424 9.456L8.52175 10.0199L8.82655 9.10547L8.03406 8.52634H9.00944L9.31424 7.59668Z" fill="white"/>
<path d="M9.31424 11.6958L9.61905 12.6255H10.5944L9.80193 13.1893L10.1067 14.119L9.31424 13.5399L8.52175 14.119L8.82655 13.1893L8.03406 12.6255H9.00944L9.31424 11.6958Z" fill="white"/>
<path d="M9.31424 15.7798L9.61905 16.7094H10.5944L9.80193 17.2886L10.1067 18.203L9.31424 17.6391L8.52175 18.203L8.82655 17.2886L8.03406 16.7094H9.00944L9.31424 15.7798Z" fill="white"/>
<path d="M9.31424 19.8799L9.61905 20.7943H10.5944L9.80193 21.3734L10.1067 22.3031L9.31424 21.724L8.52175 22.3031L8.82655 21.3734L8.03406 20.7943H9.00944L9.31424 19.8799Z" fill="white"/>
<path d="M12.1642 5.66162L12.469 6.59128H13.4443L12.6518 7.17041L12.9567 8.08483L12.1642 7.52094L11.3717 8.08483L11.6765 7.17041L10.884 6.59128H11.8594L12.1642 5.66162Z" fill="white"/>
<path d="M12.1642 9.76025L12.469 10.6747H13.4443L12.6518 11.2538L12.9567 12.1835L12.1642 11.6043L11.3717 12.1835L11.6765 11.2538L10.884 10.6747H11.8594L12.1642 9.76025Z" fill="white"/>
<path d="M12.1642 13.8452L12.469 14.7749H13.4443L12.6518 15.354L12.9567 16.2684L12.1642 15.7045L11.3717 16.2684L11.6765 15.354L10.884 14.7749H11.8594L12.1642 13.8452Z" fill="white"/>
<path d="M12.1642 17.9443L12.469 18.8588H13.4443L12.6518 19.4379L12.9567 20.3675L12.1642 19.7884L11.3717 20.3675L11.6765 19.4379L10.884 18.8588H11.8594L12.1642 17.9443Z" fill="white"/>
<path d="M15.0446 3.51123L15.3494 4.44089H16.3248L15.5323 5.00478L15.8371 5.93445L15.0446 5.35531L14.2674 5.93445L14.5722 5.00478L13.7797 4.44089H14.755L15.0446 3.51123Z" fill="white"/>
<path d="M15.0446 7.59668L15.3494 8.52634H16.3248L15.5323 9.10547L15.8371 10.0199L15.0446 9.456L14.2674 10.0199L14.5722 9.10547L13.7797 8.52634H14.755L15.0446 7.59668Z" fill="white"/>
<path d="M15.0446 11.6958L15.3494 12.6255H16.3248L15.5323 13.1893L15.8371 14.119L15.0446 13.5399L14.2674 14.119L14.5722 13.1893L13.7797 12.6255H14.755L15.0446 11.6958Z" fill="white"/>
<path d="M15.0446 15.7798L15.3494 16.7094H16.3248L15.5323 17.2886L15.8371 18.203L15.0446 17.6391L14.2674 18.203L14.5722 17.2886L13.7797 16.7094H14.755L15.0446 15.7798Z" fill="white"/>
<path d="M15.0446 19.8799L15.3494 20.7943H16.3248L15.5323 21.3734L15.8371 22.3031L15.0446 21.724L14.2674 22.3031L14.5722 21.3734L13.7797 20.7943H14.755L15.0446 19.8799Z" fill="white"/>
<path d="M17.8945 5.66162L18.1993 6.59128H19.1747L18.3822 7.17041L18.687 8.08483L17.8945 7.52094L17.1173 8.08483L17.4068 7.17041L16.6296 6.59128H17.605L17.8945 5.66162Z" fill="white"/>
<path d="M17.8945 9.76025L18.1993 10.6747H19.1747L18.3822 11.2538L18.687 12.1835L17.8945 11.6043L17.1173 12.1835L17.4068 11.2538L16.6296 10.6747H17.605L17.8945 9.76025Z" fill="white"/>
<path d="M17.8945 13.8452L18.1993 14.7749H19.1747L18.3822 15.354L18.687 16.2684L17.8945 15.7045L17.1173 16.2684L17.4068 15.354L16.6296 14.7749H17.605L17.8945 13.8452Z" fill="white"/>
<path d="M17.8945 17.9443L18.1993 18.8588H19.1747L18.3822 19.4379L18.687 20.3675L17.8945 19.7884L17.1173 20.3675L17.4068 19.4379L16.6296 18.8588H17.605L17.8945 17.9443Z" fill="white"/>
<path d="M20.7903 3.51123L21.0951 4.44089H22.0552L21.2779 5.00478L21.5675 5.93445L20.7903 5.35531L19.9978 5.93445L20.3026 5.00478L19.5101 4.44089H20.4854L20.7903 3.51123Z" fill="white"/>
<path d="M20.7903 7.59668L21.0951 8.52634H22.0552L21.2779 9.10547L21.5675 10.0199L20.7903 9.456L19.9978 10.0199L20.3026 9.10547L19.5101 8.52634H20.4854L20.7903 7.59668Z" fill="white"/>
<path d="M20.7903 11.6958L21.0951 12.6255H22.0552L21.2779 13.1893L21.5675 14.119L20.7903 13.5399L19.9978 14.119L20.3026 13.1893L19.5101 12.6255H20.4854L20.7903 11.6958Z" fill="white"/>
<path d="M20.7903 15.7798L21.0951 16.7094H22.0552L21.2779 17.2886L21.5675 18.203L20.7903 17.6391L19.9978 18.203L20.3026 17.2886L19.5101 16.7094H20.4854L20.7903 15.7798Z" fill="white"/>
<path d="M20.7903 19.8799L21.0951 20.7943H22.0552L21.2779 21.3734L21.5675 22.3031L20.7903 21.724L19.9978 22.3031L20.3026 21.3734L19.5101 20.7943H20.4854L20.7903 19.8799Z" fill="white"/>
<path d="M23.6401 5.66162L23.9297 6.59128H24.9051L24.1278 7.17041L24.4174 8.08483L23.6401 7.52094L22.8476 8.08483L23.1524 7.17041L22.3599 6.59128H23.3353L23.6401 5.66162Z" fill="white"/>
<path d="M23.6401 9.76025L23.9297 10.6747H24.9051L24.1278 11.2538L24.4174 12.1835L23.6401 11.6043L22.8476 12.1835L23.1524 11.2538L22.3599 10.6747H23.3353L23.6401 9.76025Z" fill="white"/>
<path d="M23.6401 13.8452L23.9297 14.7749H24.9051L24.1278 15.354L24.4174 16.2684L23.6401 15.7045L22.8476 16.2684L23.1524 15.354L22.3599 14.7749H23.3353L23.6401 13.8452Z" fill="white"/>
<path d="M23.6401 17.9443L23.9297 18.8588H24.9051L24.1278 19.4379L24.4174 20.3675L23.6401 19.7884L22.8476 20.3675L23.1524 19.4379L22.3599 18.8588H23.3353L23.6401 17.9443Z" fill="white"/>
<path d="M26.5205 3.51123L26.8253 4.44089H27.8007L27.0082 5.00478L27.313 5.93445L26.5205 5.35531L25.728 5.93445L26.0329 5.00478L25.2404 4.44089H26.2157L26.5205 3.51123Z" fill="white"/>
<path d="M26.5205 7.59668L26.8253 8.52634H27.8007L27.0082 9.10547L27.313 10.0199L26.5205 9.456L25.728 10.0199L26.0329 9.10547L25.2404 8.52634H26.2157L26.5205 7.59668Z" fill="white"/>
<path d="M26.5205 11.6958L26.8253 12.6255H27.8007L27.0082 13.1893L27.313 14.119L26.5205 13.5399L25.728 14.119L26.0329 13.1893L25.2404 12.6255H26.2157L26.5205 11.6958Z" fill="white"/>
<path d="M26.5205 15.7798L26.8253 16.7094H27.8007L27.0082 17.2886L27.313 18.203L26.5205 17.6391L25.728 18.203L26.0329 17.2886L25.2404 16.7094H26.2157L26.5205 15.7798Z" fill="white"/>
<path d="M26.5205 19.8799L26.8253 20.7943H27.8007L27.0082 21.3734L27.313 22.3031L26.5205 21.724L25.728 22.3031L26.0329 21.3734L25.2404 20.7943H26.2157L26.5205 19.8799Z" fill="white"/>
<path d="M29.3704 5.66162L29.6752 6.59128H30.6506L29.8581 7.17041L30.1629 8.08483L29.3704 7.52094L28.5779 8.08483L28.8827 7.17041L28.0902 6.59128H29.0656L29.3704 5.66162Z" fill="white"/>
<path d="M29.3704 9.76025L29.6752 10.6747H30.6506L29.8581 11.2538L30.1629 12.1835L29.3704 11.6043L28.5779 12.1835L28.8827 11.2538L28.0902 10.6747H29.0656L29.3704 9.76025Z" fill="white"/>
<path d="M29.3704 13.8452L29.6752 14.7749H30.6506L29.8581 15.354L30.1629 16.2684L29.3704 15.7045L28.5779 16.2684L28.8827 15.354L28.0902 14.7749H29.0656L29.3704 13.8452Z" fill="white"/>
<path d="M29.3704 17.9443L29.6752 18.8588H30.6506L29.8581 19.4379L30.1629 20.3675L29.3704 19.7884L28.5779 20.3675L28.8827 19.4379L28.0902 18.8588H29.0656L29.3704 17.9443Z" fill="white"/>
<path d="M32.2508 3.51123L32.5556 4.44089H33.531L32.7385 5.00478L33.0433 5.93445L32.2508 5.35531L31.4735 5.93445L31.7631 5.00478L30.9858 4.44089H31.9612L32.2508 3.51123Z" fill="white"/>
<path d="M32.2508 7.59668L32.5556 8.52634H33.531L32.7385 9.10547L33.0433 10.0199L32.2508 9.456L31.4735 10.0199L31.7631 9.10547L30.9858 8.52634H31.9612L32.2508 7.59668Z" fill="white"/>
<path d="M32.2508 11.6958L32.5556 12.6255H33.531L32.7385 13.1893L33.0433 14.119L32.2508 13.5399L31.4735 14.119L31.7631 13.1893L30.9858 12.6255H31.9612L32.2508 11.6958Z" fill="white"/>
<path d="M32.2508 15.7798L32.5556 16.7094H33.531L32.7385 17.2886L33.0433 18.203L32.2508 17.6391L31.4735 18.203L31.7631 17.2886L30.9858 16.7094H31.9612L32.2508 15.7798Z" fill="white"/>
<path d="M32.2508 19.8799L32.5556 20.7943H33.531L32.7385 21.3734L33.0433 22.3031L32.2508 21.724L31.4735 22.3031L31.7631 21.3734L30.9858 20.7943H31.9612L32.2508 19.8799Z" fill="white"/>
</svg>
