<svg width="29" height="26" viewBox="0 0 29 26" fill="none" xmlns="http://www.w3.org/2000/svg">
<path d="M0 26L7.08717 20.5581V9.42451L0 14.8666V26ZM14.3575 14.7569L7.41262 9.42451V20.5581L14.3575 25.8906V14.7569ZM16.6473 4.15984C16.6473 5.30883 15.6487 6.24005 14.4165 6.24005C13.1844 6.24005 12.1857 5.30864 12.1857 4.15984C12.1857 3.01104 13.1844 2.07964 14.4165 2.07964C15.6485 2.07983 16.6473 3.01123 16.6473 4.15984ZM18.3631 6.24005C18.7431 5.62783 18.9614 4.918 18.9614 4.15984C18.9614 1.86242 16.964 0 14.5002 0C12.036 0 10.0386 1.86242 10.0386 4.15984C10.0386 5.17028 10.4248 6.09599 11.0674 6.81682L14.5041 11.4397L17.9903 6.74953C18.1158 6.60321 18.2306 6.44911 18.3341 6.28743L18.3694 6.24005H18.3631ZM14.6911 25.8531L21.5276 20.604V9.47076L14.6911 14.7201V25.8531ZM29 26V14.8666L21.8285 9.36045V20.4937L29 26Z" fill="white" fill-opacity="0.4"/>
</svg>
