<svg width="23" height="24" viewBox="0 0 23 24" fill="none" xmlns="http://www.w3.org/2000/svg">
<path d="M3.08539 0.000202179C2.81262 0.000202179 2.55103 0.110138 2.35816 0.305827C2.16529 0.501515 2.05693 0.766927 2.05693 1.04367L2.05693 12.0001C2.05693 12.2769 2.16529 12.5423 2.35816 12.738C2.55103 12.9336 2.81262 13.0436 3.08539 13.0436C3.35815 13.0436 3.61974 12.9336 3.81261 12.738C4.00549 12.5423 4.11384 12.2769 4.11384 12.0001L4.11384 1.04367C4.11384 0.766927 4.00549 0.501515 3.81261 0.305827C3.61974 0.110138 3.35815 0.000202179 3.08539 0.000202179Z" fill="white"/>
<path d="M4.11383 22.9565V20.1652C4.80003 19.9191 5.37837 19.4347 5.74664 18.7978C6.1149 18.1609 6.24938 17.4123 6.1263 16.6845C6.00323 15.9567 5.63052 15.2965 5.07406 14.8205C4.51759 14.3445 3.8132 14.0835 3.08537 14.0835C2.35755 14.0835 1.65315 14.3445 1.09669 14.8205C0.540224 15.2965 0.167517 15.9567 0.0444401 16.6845C-0.0786365 17.4123 0.0558426 18.1609 0.424109 18.7978C0.792375 19.4347 1.37072 19.9191 2.05692 20.1652L2.05692 22.9565C2.05692 23.2333 2.16527 23.4987 2.35814 23.6944C2.55102 23.8901 2.81261 24 3.08537 24C3.35814 24 3.61973 23.8901 3.8126 23.6944C4.00547 23.4987 4.11383 23.2333 4.11383 22.9565V22.9565ZM2.05692 17.2174C2.05692 17.0111 2.11723 16.8093 2.23024 16.6377C2.34325 16.4661 2.50387 16.3324 2.6918 16.2534C2.87973 16.1744 3.08651 16.1538 3.28601 16.194C3.48551 16.2343 3.66877 16.3337 3.8126 16.4796C3.95643 16.6255 4.05438 16.8115 4.09407 17.0139C4.13375 17.2163 4.11338 17.4261 4.03554 17.6168C3.9577 17.8074 3.82588 17.9704 3.65675 18.0851C3.48762 18.1997 3.28878 18.2609 3.08537 18.2609C2.81261 18.2609 2.55102 18.151 2.35814 17.9553C2.16527 17.7596 2.05692 17.4942 2.05692 17.2174V17.2174Z" fill="white"/>
<path d="M10.4715 1.04354V4.87829C9.78534 5.12444 9.207 5.60879 8.83874 6.24574C8.47047 6.88268 8.33599 7.63121 8.45907 8.35903C8.58214 9.08685 8.95485 9.74709 9.51132 10.2231C10.0678 10.699 10.7722 10.9601 11.5 10.9601C12.2278 10.9601 12.9322 10.699 13.4887 10.2231C14.0451 9.74709 14.4179 9.08685 14.5409 8.35903C14.664 7.63121 14.5295 6.88268 14.1613 6.24574C13.793 5.60879 13.2147 5.12444 12.5285 4.87829L12.5285 1.04354C12.5285 0.766794 12.4201 0.501383 12.2272 0.305694C12.0344 0.110006 11.7728 6.96182e-05 11.5 6.96182e-05C11.2272 6.96182e-05 10.9656 0.110006 10.7728 0.305694C10.5799 0.501383 10.4715 0.766794 10.4715 1.04354ZM12.5285 7.8261C12.5285 8.03247 12.4681 8.23422 12.3551 8.40582C12.2421 8.57742 12.0815 8.71116 11.8936 8.79014C11.7056 8.86911 11.4989 8.88978 11.2994 8.84952C11.0999 8.80925 10.9166 8.70987 10.7728 8.56394C10.6289 8.41801 10.531 8.23208 10.4913 8.02967C10.4516 7.82725 10.472 7.61745 10.5498 7.42678C10.6277 7.23611 10.7595 7.07314 10.9286 6.95848C11.0977 6.84382 11.2966 6.78263 11.5 6.78263C11.7728 6.78263 12.0344 6.89256 12.2272 7.08825C12.4201 7.28394 12.5285 7.54935 12.5285 7.8261Z" fill="white"/>
<path d="M10.4716 13.0436V22.9565C10.4716 23.2333 10.5799 23.4987 10.7728 23.6944C10.9657 23.8901 11.2272 24 11.5 24C11.7728 24 12.0344 23.8901 12.2272 23.6944C12.4201 23.4987 12.5285 23.2333 12.5285 22.9565V13.0436C12.5285 12.7668 12.4201 12.5014 12.2272 12.3057C12.0344 12.11 11.7728 12.0001 11.5 12.0001C11.2272 12.0001 10.9657 12.11 10.7728 12.3057C10.5799 12.5014 10.4716 12.7668 10.4716 13.0436Z" fill="white"/>
<path d="M18.8862 1.04345V9.91295C18.8862 10.1897 18.9946 10.4551 19.1874 10.6508C19.3803 10.8465 19.6419 10.9564 19.9147 10.9564C20.1874 10.9564 20.449 10.8465 20.6419 10.6508C20.8348 10.4551 20.9431 10.1897 20.9431 9.91295V1.04345C20.9431 0.766708 20.8348 0.501297 20.6419 0.305608C20.449 0.10992 20.1874 -1.62125e-05 19.9147 -1.62125e-05C19.6419 -1.62125e-05 19.3803 0.10992 19.1874 0.305608C18.9946 0.501297 18.8862 0.766708 18.8862 1.04345Z" fill="white"/>
<path d="M16.8293 15.1305C16.83 15.7772 17.0281 16.4079 17.3964 16.9357C17.7648 17.4636 18.2852 17.8627 18.8862 18.0783V22.9565C18.8862 23.2333 18.9945 23.4987 19.1874 23.6944C19.3803 23.8901 19.6419 24 19.9146 24C20.1874 24 20.449 23.8901 20.6418 23.6944C20.8347 23.4987 20.9431 23.2333 20.9431 22.9565V18.0783C21.4765 17.887 21.9478 17.5505 22.3055 17.1056C22.6631 16.6608 22.8933 16.1247 22.9708 15.5561C23.0484 14.9875 22.9704 14.4081 22.7453 13.8815C22.5202 13.3548 22.1567 12.9011 21.6945 12.5699C21.2324 12.2388 20.6893 12.0429 20.1249 12.0038C19.5604 11.9647 18.9962 12.0838 18.4939 12.3481C17.9917 12.6125 17.5707 13.0118 17.2772 13.5025C16.9836 13.9933 16.8286 14.5564 16.8293 15.1305V15.1305ZM20.9431 15.1305C20.9431 15.3369 20.8828 15.5386 20.7698 15.7102C20.6567 15.8818 20.4961 16.0156 20.3082 16.0945C20.1203 16.1735 19.9135 16.1942 19.714 16.1539C19.5145 16.1137 19.3312 16.0143 19.1874 15.8683C19.0436 15.7224 18.9456 15.5365 18.9059 15.3341C18.8662 15.1317 18.8866 14.9219 18.9645 14.7312C19.0423 14.5405 19.1741 14.3775 19.3432 14.2629C19.5124 14.1482 19.7112 14.087 19.9146 14.087C20.1874 14.087 20.449 14.197 20.6418 14.3927C20.8347 14.5883 20.9431 14.8538 20.9431 15.1305Z" fill="white"/>
</svg>
