<svg width="74" height="29" viewBox="0 0 74 29" fill="none" xmlns="http://www.w3.org/2000/svg">
<path d="M34.5287 14.1655V22.6711H31.833V1.67506H38.9824C40.7069 1.64157 42.3645 2.29455 43.6202 3.50007C44.876 4.62186 45.5792 6.24596 45.5457 7.92028C45.5792 9.61134 44.876 11.2354 43.6202 12.374C42.3645 13.5627 40.8241 14.1655 38.9991 14.1655H34.5287ZM34.5287 4.25351V11.587H39.0493C40.0539 11.6205 41.025 11.2187 41.7115 10.4987C43.1347 9.12579 43.1514 6.86545 41.7785 5.44228L41.7115 5.37531C41.025 4.63861 40.0539 4.23677 39.0493 4.27026L34.5287 4.25351ZM51.7574 7.83656C53.7499 7.83656 55.3237 8.37234 56.479 9.42717C57.6343 10.4987 58.2036 11.9554 58.2036 13.8139V22.6543H55.6251V20.6619H55.5079C54.3861 22.3027 52.9127 23.1231 51.0542 23.1231C49.4804 23.1231 48.1409 22.6543 47.0861 21.7167C46.048 20.846 45.462 19.5568 45.4955 18.2006C45.4955 16.7105 46.0647 15.5384 47.1865 14.6511C48.3083 13.7637 49.8152 13.3283 51.6905 13.3283C53.2978 13.3283 54.6038 13.6297 55.6419 14.199V13.5795C55.6419 12.6586 55.24 11.788 54.5368 11.202C53.8169 10.5657 52.896 10.2141 51.9416 10.2141C50.4347 10.2141 49.246 10.8503 48.3586 12.1228L45.981 10.6327C47.2703 8.77418 49.1957 7.83656 51.7574 7.83656ZM48.2749 18.2676C48.2749 18.9708 48.6097 19.6238 49.1622 20.0256C49.765 20.4944 50.5017 20.7456 51.2551 20.7288C52.3937 20.7288 53.482 20.2768 54.2857 19.4731C55.1731 18.6359 55.6251 17.6481 55.6251 16.5096C54.788 15.8398 53.6159 15.505 52.1091 15.505C51.0207 15.505 50.0999 15.7729 49.3632 16.2919C48.6432 16.8277 48.2749 17.4807 48.2749 18.2676ZM73.0046 8.30537L63.9967 29H61.2174L64.566 21.7669L58.6389 8.32212H61.569L65.8385 18.6359H65.9055L70.0745 8.32212L73.0046 8.30537Z" fill="#5F6368"/>
<path d="M23.6289 12.3239C23.6289 11.5035 23.5619 10.6831 23.428 9.87939H12.0593V14.5173H18.5724C18.3045 16.0074 17.4339 17.3469 16.1614 18.184V21.1978H20.0458C22.3229 19.1049 23.6289 16.0074 23.6289 12.3239Z" fill="#4285F4"/>
<path d="M12.0593 24.1108C15.3075 24.1108 18.0534 23.0392 20.0458 21.1974L16.1614 18.1837C15.0731 18.9204 13.6834 19.3389 12.0593 19.3389C8.91156 19.3389 6.24939 17.2126 5.29503 14.3662H1.2934V17.4805C3.33607 21.5323 7.50513 24.1108 12.0593 24.1108Z" fill="#34A853"/>
<path d="M5.29503 14.3661C4.79274 12.8759 4.79274 11.2518 5.29503 9.74496V6.64746H1.2934C0.443123 8.32341 0 10.1762 0 12.0555C0 13.9348 0.443123 15.7876 1.2934 17.4636L5.29503 14.3661Z" fill="#FBBC04"/>
<path d="M12.0593 4.77255C13.7838 4.73906 15.4414 5.39205 16.6804 6.58082L20.1128 3.14845C17.9362 1.08904 15.0563 -0.0327578 12.0593 0.00072863C7.50513 0.00072863 3.33607 2.57919 1.2934 6.64779L5.29503 9.76203C6.24939 6.89894 8.91156 4.77255 12.0593 4.77255Z" fill="#EA4335"/>
</svg>
