<svg width="24" height="24" viewBox="0 0 24 24" fill="none" xmlns="http://www.w3.org/2000/svg">
<circle cx="12" cy="12" r="12" fill="#0D2452"/>
<path d="M11.5 6C11.5 6 7.4791 9.56 5.23205 11.488C5.1001 11.6107 5 11.7893 5 12C5 12.3687 5.29055 12.6667 5.65 12.6667H6.95V17.3333C6.95 17.702 7.24055 18 7.6 18H9.55C9.90945 18 10.2 17.7013 10.2 17.3333V14.6667H12.8V17.3333C12.8 17.7013 13.0905 18 13.45 18H15.4C15.7594 18 16.05 17.702 16.05 17.3333V12.6667H17.35C17.7094 12.6667 18 12.3687 18 12C18 11.7893 17.8999 11.6107 17.751 11.488C15.5196 9.56 11.5 6 11.5 6Z" fill="white"/>
</svg>
