<svg width="25" height="22" viewBox="0 0 25 22" fill="none" xmlns="http://www.w3.org/2000/svg">
<path d="M12.2222 0C12.2222 0 4.66156 6.52667 0.436333 10.0613C0.188222 10.2862 0 10.6138 0 11C0 11.6759 0.546333 12.2222 1.22222 12.2222H3.66667V20.7778C3.66667 21.4537 4.213 22 4.88889 22H8.55556C9.23144 22 9.77778 21.4524 9.77778 20.7778V15.8889H14.6667V20.7778C14.6667 21.4524 15.213 22 15.8889 22H19.5556C20.2314 22 20.7778 21.4537 20.7778 20.7778V12.2222H23.2222C23.8981 12.2222 24.4444 11.6759 24.4444 11C24.4444 10.6138 24.2562 10.2862 23.9763 10.0613C19.7804 6.52667 12.2222 0 12.2222 0Z" fill="white"/>
</svg>
