<svg width="20" height="21" viewBox="0 0 20 21" fill="none" xmlns="http://www.w3.org/2000/svg">
<path d="M6.62781 10.9686C3.54871 12.3558 1.3159 15.2369 0.925781 18.7582C0.925781 19.9319 1.81453 20.8923 2.9932 20.8923H17.932C19.1111 20.8923 19.9999 19.9319 19.9999 18.7582C19.6094 15.2369 17.376 12.3558 14.2976 10.9686C13.6051 12.3558 12.1517 13.4229 10.4626 13.4229C8.77344 13.4229 7.31979 12.3558 6.62781 10.9686Z" fill="white" fill-opacity="0.5"/>
<path d="M15.7979 5.8863C15.7979 7.30131 15.2358 8.65836 14.2352 9.65892C13.2347 10.6595 11.8776 11.2216 10.4626 11.2216C9.04759 11.2216 7.69055 10.6595 6.68999 9.65892C5.68943 8.65836 5.12732 7.30131 5.12732 5.8863C5.12732 4.4713 5.68943 3.11425 6.68999 2.11369C7.69055 1.11313 9.04759 0.551025 10.4626 0.551025C11.8776 0.551025 13.2347 1.11313 14.2352 2.11369C15.2358 3.11425 15.7979 4.4713 15.7979 5.8863Z" fill="white" fill-opacity="0.5"/>
</svg>
