<svg width="74" height="74" viewBox="0 0 74 74" fill="none" xmlns="http://www.w3.org/2000/svg">
<circle cx="37" cy="37" r="36.5" fill="#C4C4C4" stroke="white"/>
<mask id="mask0" mask-type="alpha" maskUnits="userSpaceOnUse" x="0" y="0" width="74" height="74">
<circle cx="37" cy="37" r="36.5" fill="#C4C4C4" stroke="white"/>
</mask>
<g mask="url(#mask0)">
<path d="M53.5624 31.599C53.5624 35.7361 51.8403 39.7037 48.775 42.6291C45.7097 45.5545 41.5522 47.1979 37.2171 47.1979C32.8821 47.1979 28.7246 45.5545 25.6593 42.6291C22.5939 39.7037 20.8719 35.7361 20.8719 31.599C20.8719 27.4619 22.5939 23.4942 25.6593 20.5688C28.7246 17.6435 32.8821 16 37.2171 16C41.5522 16 45.7097 17.6435 48.775 20.5688C51.8403 23.4942 53.5624 27.4619 53.5624 31.599Z" fill="white"/>
<path d="M37.2172 44.0781C33.0426 44.0781 29.0632 44.9173 25.4689 46.418C16.0357 50.3551 9.19517 58.8878 8 69.0365C8 72.4838 10.7228 75.276 14.3338 75.276H60.1006C63.7129 75.276 66.436 72.4838 66.436 69.0365C65.2396 58.8878 58.3974 50.3551 48.9662 46.418C45.3702 44.9173 41.3918 44.0781 37.2172 44.0781Z" fill="white"/>
</g>
</svg>
