<svg width="74" height="77" viewBox="0 0 74 77" fill="none" xmlns="http://www.w3.org/2000/svg">
<circle cx="37" cy="37" r="36.5" fill="#C4C4C4" stroke="white"/>
<mask id="mask0" mask-type="alpha" maskUnits="userSpaceOnUse" x="0" y="0" width="74" height="74">
<circle cx="37" cy="37" r="36.5" fill="#C4C4C4" stroke="white"/>
</mask>
<g mask="url(#mask0)">
<path d="M53.5624 31.599C53.5624 35.7361 51.8403 39.7037 48.775 42.6291C45.7097 45.5545 41.5522 47.1979 37.2171 47.1979C32.8821 47.1979 28.7246 45.5545 25.6593 42.6291C22.5939 39.7037 20.8719 35.7361 20.8719 31.599C20.8719 27.4619 22.5939 23.4942 25.6593 20.5688C28.7246 17.6435 32.8821 16 37.2171 16C41.5522 16 45.7097 17.6435 48.775 20.5688C51.8403 23.4942 53.5624 27.4619 53.5624 31.599Z" fill="white"/>
<path d="M37.2172 44.0781C33.0426 44.0781 29.0632 44.9173 25.4689 46.418C16.0357 50.3551 9.19517 58.8878 8 69.0365C8 72.4838 10.7228 75.276 14.3338 75.276H60.1006C63.7129 75.276 66.436 72.4838 66.436 69.0365C65.2396 58.8878 58.3974 50.3551 48.9662 46.418C45.3702 44.9173 41.3918 44.0781 37.2172 44.0781Z" fill="white"/>
</g>
<path d="M45.2324 50.2852H51.9648V43.5176H57.6426V50.2852H64.4102V55.9805H57.6426V62.7129H51.9648V55.9805H45.2324V50.2852Z" fill="#C4C4C4"/>
<path d="M45.2324 50.2852V48.2852H43.2324V50.2852H45.2324ZM51.9648 50.2852V52.2852H53.9648V50.2852H51.9648ZM51.9648 43.5176V41.5176H49.9648V43.5176H51.9648ZM57.6426 43.5176H59.6426V41.5176H57.6426V43.5176ZM57.6426 50.2852H55.6426V52.2852H57.6426V50.2852ZM64.4102 50.2852H66.4102V48.2852H64.4102V50.2852ZM64.4102 55.9805V57.9805H66.4102V55.9805H64.4102ZM57.6426 55.9805V53.9805H55.6426V55.9805H57.6426ZM57.6426 62.7129V64.7129H59.6426V62.7129H57.6426ZM51.9648 62.7129H49.9648V64.7129H51.9648V62.7129ZM51.9648 55.9805H53.9648V53.9805H51.9648V55.9805ZM45.2324 55.9805H43.2324V57.9805H45.2324V55.9805ZM45.2324 52.2852H51.9648V48.2852H45.2324V52.2852ZM53.9648 50.2852V43.5176H49.9648V50.2852H53.9648ZM51.9648 45.5176H57.6426V41.5176H51.9648V45.5176ZM55.6426 43.5176V50.2852H59.6426V43.5176H55.6426ZM57.6426 52.2852H64.4102V48.2852H57.6426V52.2852ZM62.4102 50.2852V55.9805H66.4102V50.2852H62.4102ZM64.4102 53.9805H57.6426V57.9805H64.4102V53.9805ZM55.6426 55.9805V62.7129H59.6426V55.9805H55.6426ZM57.6426 60.7129H51.9648V64.7129H57.6426V60.7129ZM53.9648 62.7129V55.9805H49.9648V62.7129H53.9648ZM51.9648 53.9805H45.2324V57.9805H51.9648V53.9805ZM47.2324 55.9805V50.2852H43.2324V55.9805H47.2324Z" fill="white" fill-opacity="0.8"/>
</svg>
