<svg width="19" height="15" viewBox="0 0 19 15" fill="none" xmlns="http://www.w3.org/2000/svg">
<path d="M7.7551 13.875C7.7551 13.9062 7.75914 13.9844 7.76722 14.1094C7.7753 14.2344 7.77732 14.3379 7.77328 14.4199C7.76924 14.502 7.75712 14.5938 7.73693 14.6953C7.71673 14.7969 7.67634 14.873 7.61575 14.9238C7.55517 14.9746 7.47236 15 7.36735 15H3.4898C2.52849 15 1.70653 14.6699 1.02392 14.0098C0.341305 13.3496 0 12.5547 0 11.625V3.375C0 2.44531 0.341305 1.65039 1.02392 0.990234C1.70653 0.330078 2.52849 0 3.4898 0H7.36735C7.47236 0 7.56324 0.0371094 7.63999 0.111328C7.71673 0.185547 7.7551 0.273438 7.7551 0.375C7.7551 0.40625 7.75914 0.484375 7.76722 0.609375C7.7753 0.734375 7.77732 0.837891 7.77328 0.919922C7.76924 1.00195 7.75712 1.09375 7.73693 1.19531C7.71673 1.29688 7.67634 1.37305 7.61575 1.42383C7.55517 1.47461 7.47236 1.5 7.36735 1.5H3.4898C2.95663 1.5 2.50021 1.68359 2.12054 2.05078C1.74086 2.41797 1.55102 2.85938 1.55102 3.375V11.625C1.55102 12.1406 1.74086 12.582 2.12054 12.9492C2.50021 13.3164 2.95663 13.5 3.4898 13.5H7.27041L7.40976 13.5117L7.54911 13.5469L7.64605 13.6113L7.73087 13.7168L7.7551 13.875ZM19 7.5C19 7.70312 18.9233 7.87891 18.7698 8.02734L12.1779 14.4023C12.0244 14.5508 11.8427 14.625 11.6327 14.625C11.4226 14.625 11.2409 14.5508 11.0874 14.4023C10.9339 14.2539 10.8571 14.0781 10.8571 13.875V10.5H5.42857C5.21854 10.5 5.03678 10.4258 4.88329 10.2773C4.7298 10.1289 4.65306 9.95312 4.65306 9.75V5.25C4.65306 5.04688 4.7298 4.87109 4.88329 4.72266C5.03678 4.57422 5.21854 4.5 5.42857 4.5H10.8571V1.125C10.8571 0.921875 10.9339 0.746094 11.0874 0.597656C11.2409 0.449219 11.4226 0.375 11.6327 0.375C11.8427 0.375 12.0244 0.449219 12.1779 0.597656L18.7698 6.97266C18.9233 7.12109 19 7.29688 19 7.5Z" fill="#0D2452"/>
</svg>
