<svg width="17" height="16" viewBox="0 0 17 16" fill="none" xmlns="http://www.w3.org/2000/svg">
<path d="M5.71345 5.124L5.74097 5.37248L5.88262 5.35679L5.94129 5.22691L5.71345 5.124ZM5.71345 5.124L5.9413 5.22688L5.94135 5.22678L5.94153 5.22638L5.94224 5.2248L5.94507 5.21854L5.9562 5.1939L5.99924 5.09862L6.15947 4.74392L6.70502 3.53644C7.14149 2.57052 7.68717 1.36317 8.12414 0.397251C8.16393 0.309495 8.25106 0.25 8.34945 0.25C8.44655 0.25 8.53441 0.30745 8.57872 0.399353M5.71345 5.124L5.74094 5.37248L5.74083 5.3725L5.7404 5.37254L5.73868 5.37274L5.73185 5.37349L5.70497 5.37647L5.60108 5.38798L5.21429 5.43082L3.89749 5.57673C2.84447 5.69343 1.5282 5.83934 0.474462 5.95632C0.375701 5.96865 0.293102 6.03364 0.262111 6.12858C0.231491 6.22238 0.260987 6.32203 0.332423 6.38684L0.332967 6.38733C1.11585 7.10172 2.0955 7.99389 2.87949 8.7075L3.85957 9.59938L4.14751 9.86132L4.22486 9.93167L4.24486 9.94987L4.24995 9.9545L4.25123 9.95566L4.25155 9.95595L4.25163 9.95603L4.08345 10.141M0.164452 6.572C1.478 7.77064 3.34526 9.46951 3.91316 9.9861C3.95543 9.95008 4.01537 9.90983 4.08345 9.891V10.141M0.164452 6.572L8.57872 0.399353M0.164452 6.572C0.0244525 6.445 -0.0385474 6.244 0.0244526 6.051C0.0874526 5.858 0.255452 5.731 0.445452 5.708L0.164452 6.572ZM4.08345 10.141C4.08345 10.141 4.08345 10.141 4.08345 10.141C4.08028 10.1467 3.43706 13.2559 3.00945 15.331M4.08345 10.141L4.25166 9.95605L4.7299 10.391H4.28629M3.00945 15.331C2.97345 15.519 3.04145 15.718 3.20545 15.837C3.36845 15.956 3.57845 15.958 3.74345 15.865C5.58745 14.817 8.34945 13.241 8.34945 13.241M3.00945 15.331L3.25499 15.378C3.2549 15.3785 3.25481 15.379 3.25472 15.3795M3.00945 15.331L3.25431 15.3815C3.25444 15.3808 3.25458 15.3801 3.25472 15.3795M8.34945 13.241C8.34945 13.241 11.1125 14.817 12.9535 15.866M8.34945 13.241L8.22552 13.0239L8.22543 13.0239L8.22505 13.0241L8.22355 13.025L8.21758 13.0284L8.19409 13.0418L8.10329 13.0936L7.76522 13.2865L6.61415 13.9428C5.69333 14.4677 4.54219 15.1235 3.62042 15.6474M8.34945 13.241L8.47335 13.0239L8.47344 13.0239L8.47382 13.0241L8.47533 13.025L8.4813 13.0284L8.5048 13.0418L8.59563 13.0936L8.93379 13.2865L10.0849 13.943C11.0051 14.4677 12.155 15.1233 13.0751 15.6476M8.34945 13.241L8.22555 13.0239L8.34943 12.9532L8.47332 13.0238L8.34945 13.241ZM12.9535 15.866C13.1215 15.958 13.3315 15.956 13.4945 15.837C13.6585 15.718 13.7265 15.519 13.6895 15.332M12.9535 15.866L13.0735 15.6467C13.074 15.647 13.0746 15.6473 13.0751 15.6476M12.9535 15.866L13.0772 15.6488C13.0765 15.6484 13.0758 15.648 13.0751 15.6476M13.6895 15.332C13.2615 13.254 12.6185 10.141 12.6185 10.141M13.6895 15.332L13.4446 15.3824C13.4445 15.382 13.4444 15.3816 13.4444 15.3813M13.6895 15.332L13.4442 15.3805C13.4443 15.3808 13.4443 15.381 13.4444 15.3813M12.6185 10.141C12.6185 10.141 14.9715 8.001 16.5375 6.575M12.6185 10.141L12.3736 10.1916L12.3737 10.1917L12.3737 10.1921L12.3741 10.1938L12.3755 10.2006L12.3809 10.227L12.4021 10.3294L12.4808 10.7104L12.7486 12.0078C12.9628 13.0454 13.2304 14.3425 13.4444 15.3813M12.6185 10.141L12.4503 9.95603L12.4504 9.95595L12.4507 9.95566L12.452 9.9545L12.457 9.94987L12.4771 9.93167L12.5544 9.86132L12.8424 9.59941L13.8225 8.70783C14.606 7.99502 15.585 7.10422 16.3677 6.39148M12.6185 10.141L12.3736 10.1916L12.3448 10.052L12.4502 9.95605L12.6185 10.141ZM16.5375 6.575C16.6775 6.444 16.7395 6.243 16.6775 6.051C16.6155 5.859 16.4475 5.732 16.2575 5.71M16.5375 6.575L16.3666 6.39245C16.367 6.39213 16.3673 6.3918 16.3677 6.39148M16.5375 6.575L16.3691 6.39015C16.3686 6.39059 16.3682 6.39104 16.3677 6.39148M16.2575 5.71C14.1495 5.474 10.9885 5.124 10.9885 5.124M16.2575 5.71L16.2296 5.95845C16.2295 5.95843 16.2293 5.95841 16.2291 5.95839M16.2575 5.71L16.2287 5.95834C16.2288 5.95836 16.229 5.95837 16.2291 5.95839M10.9885 5.124C10.9885 5.124 9.67845 2.226 8.80545 0.294L8.57955 0.401078C8.57927 0.400501 8.579 0.399927 8.57872 0.399353M10.9885 5.124L10.961 5.37249L10.9611 5.3725L10.9615 5.37255L10.9632 5.37274L10.9701 5.37349L10.9969 5.37647L11.1009 5.38798L11.4878 5.43085L12.8049 5.57697C13.8584 5.69395 15.1753 5.84041 16.2291 5.95839M10.9885 5.124L10.7606 5.22694L10.7606 5.22684L10.7604 5.22645L10.7597 5.22487L10.7569 5.2186L10.7457 5.19396L10.7027 5.09868L10.5423 4.74397L9.99652 3.53647L8.57872 0.399353M10.9885 5.124L10.9609 5.37248L10.8193 5.3568L10.7606 5.22698L10.9885 5.124ZM4.28629 10.391L4.299 10.33L4.32035 10.2282L4.32574 10.2029L4.32642 10.1998L4.32655 10.1992L4.32596 10.2016L4.32359 10.2105C4.32272 10.2134 4.31988 10.2222 4.31783 10.228C4.31138 10.2437 4.21192 10.3555 4.08345 10.391H4.28629ZM4.28629 10.391L4.21976 10.7107C4.15244 11.0349 4.05839 11.4889 3.95102 12.0078C3.73641 13.0449 3.46863 14.3414 3.25472 15.3795M3.25472 15.3795C3.23618 15.4791 3.27301 15.5771 3.35228 15.6347L3.35286 15.6351C3.43075 15.6919 3.53434 15.6958 3.62042 15.6474M3.62042 15.6474C3.62025 15.6475 3.62009 15.6476 3.61993 15.6476L3.74342 15.8649L3.6207 15.6472C3.6206 15.6473 3.62051 15.6473 3.62042 15.6474ZM13.0751 15.6476C13.166 15.6967 13.2701 15.6912 13.347 15.6351L13.3476 15.6347C13.4273 15.5768 13.4634 15.4788 13.4444 15.3813M16.3677 6.39148C16.4416 6.32158 16.4694 6.22035 16.4395 6.12782C16.4095 6.03462 16.3275 5.96994 16.2291 5.95839" fill="white" stroke="#737373" stroke-width="0.5"/>
</svg>
