<svg width="17" height="16" viewBox="0 0 17 16" fill="none" xmlns="http://www.w3.org/2000/svg">
<path d="M5.71345 5.124C5.71345 5.124 2.55345 5.474 0.445452 5.708C0.255452 5.731 0.0874526 5.858 0.0244526 6.051C-0.0385474 6.244 0.0244525 6.445 0.164452 6.572C1.73045 8.001 4.08345 10.141 4.08345 10.141C4.08145 10.141 3.43745 13.254 3.00945 15.331C2.97345 15.519 3.04145 15.718 3.20545 15.837C3.36845 15.956 3.57845 15.958 3.74345 15.865C5.58745 14.817 8.34945 13.241 8.34945 13.241C8.34945 13.241 11.1125 14.817 12.9535 15.866C13.1215 15.958 13.3315 15.956 13.4945 15.837C13.6585 15.718 13.7265 15.519 13.6895 15.332C13.2615 13.254 12.6185 10.141 12.6185 10.141C12.6185 10.141 14.9715 8.001 16.5375 6.575C16.6775 6.444 16.7395 6.243 16.6775 6.051C16.6155 5.859 16.4475 5.732 16.2575 5.71C14.1495 5.474 10.9885 5.124 10.9885 5.124C10.9885 5.124 9.67845 2.226 8.80545 0.294C8.72345 0.121 8.55145 0 8.34945 0C8.14745 0 7.97445 0.122 7.89645 0.294C7.02245 2.226 5.71345 5.124 5.71345 5.124Z" fill="#B3232D"/>
</svg>
